<?xml version="1.0" encoding="UTF-8" standalone="no"?>
<!DOCTYPE svg PUBLIC "-//W3C//DTD SVG 1.1//EN"
 "http://www.w3.org/Graphics/SVG/1.1/DTD/svg11.dtd">
<!-- Generated by graphviz version 14.1.2 (0)
 -->
<!-- Title: hpc3_descriptor Pages: 1 -->
<svg width="587pt" height="320pt"
 viewBox="0.00 0.00 587.00 320.00" xmlns="http://www.w3.org/2000/svg" xmlns:xlink="http://www.w3.org/1999/xlink">
<g id="graph0" class="graph" transform="scale(1 1) rotate(0) translate(4 316.25)">
<title>hpc3_descriptor</title>
<polygon fill="white" stroke="none" points="-4,4 -4,-316.25 582.75,-316.25 582.75,4 -4,4"/>
<text xml:space="preserve" text-anchor="middle" x="289.38" y="-295.9" font-family="Helvetica,sans-Serif" font-size="13.00">HPC3 DMA descriptor (word order {BP, BC, DP}, quadword&#45;aligned)</text>
<!-- desc -->
<g id="node1" class="node">
<title>desc</title>
<polygon fill="#f7f7f7" stroke="black" points="119.75,-201.25 119.75,-287.25 459,-287.25 459,-201.25 119.75,-201.25"/>
<text xml:space="preserve" text-anchor="middle" x="289.38" y="-272.8" font-family="Helvetica,sans-Serif" font-size="11.00">+0x0 BP : memory&#45;buffer PHYSICAL address [31:0]</text>
<polyline fill="none" stroke="black" points="119.75,-265.75 459,-265.75"/>
<text xml:space="preserve" text-anchor="middle" x="289.38" y="-251.3" font-family="Helvetica,sans-Serif" font-size="11.00">+0x4 BC : flags + byte count</text>
<polyline fill="none" stroke="black" points="119.75,-244.25 459,-244.25"/>
<text xml:space="preserve" text-anchor="middle" x="289.38" y="-229.8" font-family="Helvetica,sans-Serif" font-size="11.00">+0x8 DP : next&#45;descriptor PHYSICAL address [31:0]</text>
<polyline fill="none" stroke="black" points="119.75,-222.75 459,-222.75"/>
<text xml:space="preserve" text-anchor="middle" x="289.38" y="-208.3" font-family="Helvetica,sans-Serif" font-size="11.00">+0xc pad (Linux hpc_chunk._padding; keeps stride = 16 B)</text>
</g>
<!-- bc -->
<g id="node2" class="node">
<title>bc</title>
<polygon fill="#eef3fb" stroke="black" points="0,-107.5 0,-143.5 578.75,-143.5 578.75,-107.5 0,-107.5"/>
<text xml:space="preserve" text-anchor="middle" x="32.38" y="-121.8" font-family="Helvetica,sans-Serif" font-size="11.00">EOX [31]</text>
<polyline fill="none" stroke="black" points="64.75,-107.5 64.75,-143.5"/>
<text xml:space="preserve" text-anchor="middle" x="100.5" y="-121.8" font-family="Helvetica,sans-Serif" font-size="11.00">EOXP [30]</text>
<polyline fill="none" stroke="black" points="136.25,-107.5 136.25,-143.5"/>
<text xml:space="preserve" text-anchor="middle" x="166" y="-121.8" font-family="Helvetica,sans-Serif" font-size="11.00">XIE [29]</text>
<polyline fill="none" stroke="black" points="195.75,-107.5 195.75,-143.5"/>
<text xml:space="preserve" text-anchor="middle" x="236" y="-121.8" font-family="Helvetica,sans-Serif" font-size="11.00">RES [28:24]</text>
<polyline fill="none" stroke="black" points="276.25,-107.5 276.25,-143.5"/>
<text xml:space="preserve" text-anchor="middle" x="315" y="-121.8" font-family="Helvetica,sans-Serif" font-size="11.00">IPG [23:16]</text>
<polyline fill="none" stroke="black" points="353.75,-107.5 353.75,-143.5"/>
<text xml:space="preserve" text-anchor="middle" x="386.12" y="-121.8" font-family="Helvetica,sans-Serif" font-size="11.00">TXD [15]</text>
<polyline fill="none" stroke="black" points="418.5,-107.5 418.5,-143.5"/>
<text xml:space="preserve" text-anchor="middle" x="443.38" y="-121.8" font-family="Helvetica,sans-Serif" font-size="11.00">R [14]</text>
<polyline fill="none" stroke="black" points="468.25,-107.5 468.25,-143.5"/>
<text xml:space="preserve" text-anchor="middle" x="523.5" y="-121.8" font-family="Helvetica,sans-Serif" font-size="11.00">ByteCount [13:0]</text>
</g>
<!-- desc&#45;&gt;bc -->
<g id="edge1" class="edge">
<title>desc:bc&#45;&gt;bc</title>
<path fill="none" stroke="black" stroke-dasharray="5,2" d="M460,-255C484.12,-255 472.38,-220.81 459,-200.75 442.23,-175.61 414.91,-158.93 387.05,-147.87"/>
<polygon fill="black" stroke="black" points="388.37,-144.63 377.78,-144.43 385.94,-151.19 388.37,-144.63"/>
<text xml:space="preserve" text-anchor="middle" x="459.78" y="-169.25" font-family="Helvetica,sans-Serif" font-size="10.00">BC word</text>
</g>
<!-- note -->
<g id="node3" class="node">
<title>note</title>
<text xml:space="preserve" text-anchor="start" x="121.38" y="-47.55" font-family="Helvetica,sans-Serif" font-size="11.00">EOX &#160;= end&#45;of&#45;chain (last desc; deactivate after; DP ignored)</text>
<text xml:space="preserve" text-anchor="start" x="121.38" y="-34.05" font-family="Helvetica,sans-Serif" font-size="11.00">XIE &#160;= raise channel IRQ when this desc completes</text>
<text xml:space="preserve" text-anchor="start" x="121.38" y="-20.55" font-family="Helvetica,sans-Serif" font-size="11.00">EOXP / IPG / TXD = ethernet&#45;only</text>
<text xml:space="preserve" text-anchor="start" x="121.38" y="-7.05" font-family="Helvetica,sans-Serif" font-size="11.00">For SCSI only EOX, XIE, ByteCount are used.</text>
</g>
<!-- bc&#45;&gt;note -->
</g>
</svg>
